# xmcd
#
# Track frame offsets:
#	150
#	15369
#	32375
#	53579
#	68734
#	88120
#	107694
#	124851
#	142040
#	160195
#	178900
#	192524
#	207960
#	223908
#	238096
#	252309
#	253277
#	253989
#	254664
#	255367
#	256187
#	256944
#	257692
#	258424
#
# Disc length: 3453 seconds
#
# Revision: 1
# Processed by: cddbd v1.5.2PL0 Copyright (c) Steve Scherf et al.
# Submitted via: audiograbber 1.83.01
#
DISCID=670d7b18
DTITLE=Various Artist - CDX Volume 631 (March 28, 2016)
DYEAR=2016
DGENRE=Country
TTITLE0=Jake Owen - American Country Love Song
TTITLE1=Blake Shelton - Came Here To Forget 
TTITLE2=Luke Bryan - Huntin', Fishin', And Lovin' Everyday
TTITLE3=Kelsea Ballerini - Peter Pan 
TTITLE4=Alan Jackson - The One You're Waiting On
TTITLE5=Aaron Watson - Bluebonnets 
TTITLE6=John Anderson - Magic Mama
TTITLE7=Jason Pritchett (featuring Billy Dean) - Already A Dead Man
TTITLE8=Vince Hatfield - American Oil From American Soil
TTITLE9=Gina Miller - Angel From Montgomery
TTITLE10=Jessie G - Drop A Line 
TTITLE11=Keith Walker - Friends With Boats
TTITLE12=Cassidy Huckabay - Heard It Through the Grapevine
TTITLE13=Kylie Morgan - Mayer's In The Mailbox
TTITLE14=Alexandra Demetree - You Still Think I'm Beautiful
TTITLE15=Sierra Black - Radio Liner - My New Single
TTITLE16=Sierra Black - Radio Liner - Today's Best Country
TTITLE17=Sierra Black - Radio Liner - Kickin' Country
TTITLE18=Sierra Black - Radio Liner - Hometown Country
TTITLE19=Sierra Black - Radio Liner - Super Country
TTITLE20=Sierra Black - Radio Liner - Today's Hot Country
TTITLE21=Sierra Black - Radio Liner - Best in Today's Country 
TTITLE22=Sierra Black - Radio Liner - More Of The Country You Love
TTITLE23=Sierra Black - Radio Liner - Howlin' Country
EXTD=
EXTT0=
EXTT1=
EXTT2=
EXTT3=
EXTT4=
EXTT5=
EXTT6=
EXTT7=
EXTT8=
EXTT9=
EXTT10=
EXTT11=
EXTT12=
EXTT13=
EXTT14=
EXTT15=
EXTT16=
EXTT17=
EXTT18=
EXTT19=
EXTT20=
EXTT21=
EXTT22=
EXTT23=
PLAYORDER=
